# xmcd
#
# Track frame offsets:
#	150
#	15742
#	44677
#	60455
#	93920
#	121580
#	160522
#	177255
#	193997
#	222947
#
# Disc length: 3424 seconds
#
# Revision: 0
# Processed by: cddbd v1.5.1PL0 Copyright (c) Steve Scherf et al.
# Submitted via: dBpowerAMP V4.0
#
DISCID=800d5e0a
DTITLE=HArold Melvin and the Blue Notes - My Blue Heaven
DYEAR=1900
DGENRE=Soul
TTITLE0=If You Dont Know Me By Now
TTITLE1=The Love I lost
TTITLE2=Satisfaction Guaranteed
TTITLE3=Its For Real
TTITLE4=Don't Leave Me This Way
TTITLE5=I Miss You
TTITLE6=Hope That We Can Be Together Soon
TTITLE7=Keep On Loving You
TTITLE8=Bad Luck
TTITLE9=Wake Up Everybody
EXTD=
EXTT0=
EXTT1=
EXTT2=
EXTT3=
EXTT4=
EXTT5=
EXTT6=
EXTT7=
EXTT8=
EXTT9=
PLAYORDER=
